<?xml version="1.0" encoding="utf-8"?>
<!-- Generator: Adobe Illustrator 22.0.1, SVG Export Plug-In . SVG Version: 6.00 Build 0)  -->
<svg version="1.1" id="Слой_1" xmlns="http://www.w3.org/2000/svg" xmlns:xlink="http://www.w3.org/1999/xlink" x="0px" y="0px"
	 viewBox="0 0 166 40" style="enable-background:new 0 0 166 40;" xml:space="preserve">
<style type="text/css">
	.st0{fill:#9C772A;}
	.st1{fill:#9C772A;fill-opacity:0.9;}
</style>
<g>
	<path class="st0" d="M20,0C9,0,0,9,0,20s9,20,20,20s20-9,20-20S31,0,20,0z M20,36.7c-9.2,0-16.7-7.5-16.7-16.7S10.8,3.3,20,3.3
		S36.7,10.8,36.7,20S29.2,36.7,20,36.7z"/>
	<path class="st0" d="M20,11.7c1.8,0,3.3,1.5,3.3,3.3h3.3c0-3.2-2.2-5.7-5-6.5V6.7h-3.3v1.8c-2.8,0.8-5,3.3-5,6.5
		c0,3.7,3,6.7,6.7,6.7c1.8,0,3.3,1.5,3.3,3.3s-1.5,3.3-3.3,3.3s-3.3-1.5-3.3-3.3h-3.3c0,3.2,2.2,5.7,5,6.5v1.8h3.3v-1.8
		c2.8-0.7,5-3.3,5-6.5c0-3.7-3-6.7-6.7-6.7c-1.8,0-3.3-1.5-3.3-3.3S18.2,11.7,20,11.7z"/>
</g>
<g id="Page-1">
	<g id="Icons-Device" transform="translate(-44.000000, 0.000000)">
		<g id="access-time" transform="translate(44.000000, 0.000000)">
			<path id="Shape" class="st1" d="M62,0C51,0,42,9,42,20s9,20,20,20s20-9,20-20S73,0,62,0L62,0z M62,36c-8.8,0-16-7.2-16-16
				S53.2,4,62,4s16,7.2,16,16S70.8,36,62,36z M63,10h-3v12l10.4,6.4l1.6-2.6l-9-5.4V10z"/>
		</g>
	</g>
	<path class="st0" d="M92.5,40h-7.3c-0.5,0-0.9-0.3-0.9-0.8V15.5c0-0.5,0.5-0.8,0.9-0.8h7.3c0.5,0,0.9,0.4,0.9,0.8v23.7
		C93.4,39.7,92.9,40,92.5,40z M86.1,38.4h5.5v-22h-5.5V38.4z M107.8,38.4L107.8,38.4c-0.6,0-1.3,0-1.9,0c-2.5-0.1-5.4-0.5-7.5-0.7
		c-1-0.2-1.9-0.2-2.5-0.2c-0.5,0-0.8-0.4-0.8-0.8V17.2c0-0.3,0.3-0.7,0.5-0.7l0.5-0.2c2.1-0.7,6.4-2.1,8.6-4.2
		c2.4-2.2,3.5-5.2,3.5-8.8c0.1-1.1,0.8-3.3,3.3-3.3c0.5,0,1,0.1,1.6,0.2c0.1,0,0.3,0.1,0.4,0.2c1,0.9,4.3,6.2,1.2,14.3h5.2l0,0
		c0.4,0,3.1,0.1,4.2,3.2c0.2,0.4,0.9,2.1-0.7,4.2c0.5,0.7,1.2,2.3,0.4,3.9c-0.1,0.2-0.5,1.1-1.2,1.8c0.5,1.4,0.4,3.7-1.8,5.3
		c-0.1,1-0.5,3.3-2.7,4.1C117.6,37.3,113.8,38.4,107.8,38.4z M97,35.8c0.5,0.1,1.1,0.2,1.7,0.2c2.1,0.2,4.9,0.6,7.3,0.7
		c6.7,0.2,11.2-1.1,11.2-1.1c1.5-0.6,1.5-2.9,1.5-2.9c0-0.2,0.2-0.5,0.4-0.7c2.5-1.6,1.4-4.1,1.4-4.2c-0.2-0.4,0-0.8,0.5-1.1
		c0.4-0.2,0.8-0.9,1-1.3c0.7-1.5-0.5-2.9-0.5-2.9c-0.3-0.3-0.3-0.7,0-1.1c1.5-1.6,0.9-2.9,0.9-3c0,0,0-0.1-0.1-0.1
		c-0.7-2.1-2.4-2.2-2.5-2.2h-6.6c-0.3,0-0.5-0.2-0.7-0.3c-0.2-0.2-0.2-0.5-0.1-0.7c3.2-7.4,0.6-12.5-0.2-13.6
		c-0.4-0.1-0.6-0.1-0.8-0.1c-1.3,0-1.4,1.5-1.4,1.6c0,4-1.3,7.3-3.9,9.9c-2.5,2.4-6.8,3.8-9.1,4.6L97,35.8L97,35.8z M88.8,36.7
		c-0.5,0-0.9-0.3-0.9-0.8c0-0.5,0.5-0.8,0.9-0.8s0.9,0.4,0.9,0.8C89.7,36.4,89.3,36.7,88.8,36.7z"/>
	<path class="st0" d="M146,0.1c-0.7,0-1.4,0.5-1.6,1.2L140.5,14h-12.9c-0.9,0-1.6,0.8-1.6,1.7c0,0.6,0.3,1.1,0.7,1.4
		c0.3,0.2,10.4,7.9,10.4,7.9s-3.9,12.5-4,12.7c-0.1,0.2-0.1,0.4-0.1,0.6c0,0.9,0.7,1.7,1.6,1.7c0.3,0,0.7-0.1,0.9-0.3l10.4-7.9
		c0,0,10.2,7.7,10.4,7.9c0.3,0.2,0.6,0.3,0.9,0.3c0.9,0,1.6-0.8,1.6-1.7c0-0.2,0-0.4-0.1-0.6c-0.1-0.2-4-12.7-4-12.7
		s10.2-7.8,10.4-7.9c0.4-0.3,0.7-0.8,0.7-1.4c0-0.9-0.7-1.7-1.6-1.7h-12.9l-4-12.7C147.4,0.6,146.7,0.1,146,0.1z"/>
</g>
</svg>
